<svg width="165" height="33" viewBox="0 0 165 33" fill="none" xmlns="http://www.w3.org/2000/svg">
<path d="M3.35739 1.91854C3.35739 1.64239 3.58125 1.41854 3.85739 1.41854H6.21321C6.48935 1.41854 6.71321 1.64239 6.71321 1.91854V9.3478C6.71321 9.62394 6.48935 9.8478 6.21321 9.8478H3.85739C3.58125 9.8478 3.35739 9.62394 3.35739 9.3478V1.91854Z" fill="#2967FD"/>
<path d="M23.9952 25.1659C23.9952 25.7182 23.5475 26.1659 22.9952 26.1659H2.00103C1.44877 26.1659 1.00107 25.7182 1.00103 25.166L1 9.74977C0.99998 9.45282 1.13194 9.17122 1.36014 8.98121L11.8689 0.231504C12.24 -0.0774129 12.7787 -0.0771396 13.1494 0.232154L23.6359 8.98127C23.8636 9.17126 23.9952 9.45254 23.9952 9.74911V11.5021C23.6738 11.8227 23.3805 12.1157 23.307 12.1891L15.3188 20.1773L11.4103 16.3033C11.2409 16.1339 10.9731 16.1339 10.8037 16.3033L9.64655 17.4604C9.47715 17.6298 9.47715 17.9298 9.64655 18.0992L14.9822 23.4348C15.1516 23.6042 15.4515 23.6042 15.6209 23.4348L23.9952 15.0605V25.1659Z" fill="url(#paint0_diamond_551_7373)"/>
<path d="M23.9952 25.1659C23.9952 25.7182 23.5475 26.1659 22.9952 26.1659H2.00103C1.44877 26.1659 1.00107 25.7182 1.00103 25.166L1 9.74977C0.99998 9.45282 1.13194 9.17122 1.36014 8.98121L11.8689 0.231504C12.24 -0.0774129 12.7787 -0.0771396 13.1494 0.232154L23.6359 8.98127C23.8636 9.17126 23.9952 9.45254 23.9952 9.74911V11.5021C23.6738 11.8227 23.3805 12.1157 23.307 12.1891L15.3188 20.1773L11.4103 16.3033C11.2409 16.1339 10.9731 16.1339 10.8037 16.3033L9.64655 17.4604C9.47715 17.6298 9.47715 17.9298 9.64655 18.0992L14.9822 23.4348C15.1516 23.6042 15.4515 23.6042 15.6209 23.4348L23.9952 15.0605V25.1659Z" fill="url(#paint1_radial_551_7373)"/>
<path d="M23.9952 25.1659C23.9952 25.7182 23.5475 26.1659 22.9952 26.1659H2.00103C1.44877 26.1659 1.00107 25.7182 1.00103 25.166L1 9.74977C0.99998 9.45282 1.13194 9.17122 1.36014 8.98121L11.8689 0.231504C12.24 -0.0774129 12.7787 -0.0771396 13.1494 0.232154L23.6359 8.98127C23.8636 9.17126 23.9952 9.45254 23.9952 9.74911V11.5021C23.6738 11.8227 23.3805 12.1157 23.307 12.1891L15.3188 20.1773L11.4103 16.3033C11.2409 16.1339 10.9731 16.1339 10.8037 16.3033L9.64655 17.4604C9.47715 17.6298 9.47715 17.9298 9.64655 18.0992L14.9822 23.4348C15.1516 23.6042 15.4515 23.6042 15.6209 23.4348L23.9952 15.0605V25.1659Z" fill="url(#paint2_radial_551_7373)"/>
<path d="M110.24 26.12V4.69849H114.122V26.12H110.24Z" fill="black"/>
<path d="M31.0859 5.29106V26.12H35.1154V17.1425H44.1522V26.12H48.1817V5.29106H44.1522V13.5871H35.1154V5.29106H31.0859Z" fill="black"/>
<path fill-rule="evenodd" clip-rule="evenodd" d="M54.8393 25.4385C56.0047 26.0904 57.3084 26.4163 58.7503 26.4163C60.1922 26.4163 61.486 26.0904 62.6317 25.4385C63.797 24.767 64.7155 23.8682 65.3871 22.7423C66.0587 21.5967 66.3945 20.3227 66.3945 18.9202C66.3945 17.5178 66.0587 16.2635 65.3871 15.1574C64.7155 14.0315 63.797 13.1427 62.6317 12.4908C61.486 11.8192 60.1823 11.4834 58.7207 11.4834C57.2985 11.4834 56.0047 11.8192 54.8393 12.4908C53.6739 13.1427 52.7554 14.0315 52.0839 15.1574C51.4123 16.2635 51.0765 17.5178 51.0765 18.9202C51.0765 20.3227 51.4123 21.5967 52.0839 22.7423C52.7752 23.8682 53.6937 24.767 54.8393 25.4385ZM60.6465 22.3275C60.0935 22.6436 59.4515 22.8016 58.7207 22.8016C58.0096 22.8016 57.3775 22.6436 56.8244 22.3275C56.2714 21.9917 55.8368 21.5374 55.5208 20.9646C55.2047 20.372 55.0467 19.7005 55.0467 18.9499C55.0467 18.1993 55.2047 17.5376 55.5208 16.9647C55.8368 16.3919 56.2714 15.9475 56.8244 15.6315C57.3775 15.2957 58.0096 15.1278 58.7207 15.1278C59.4515 15.1278 60.0935 15.2957 60.6465 15.6315C61.1996 15.9475 61.6342 16.3919 61.9502 16.9647C62.2662 17.5376 62.4243 18.1993 62.4243 18.9499C62.4243 19.7005 62.2662 20.372 61.9502 20.9646C61.6539 21.5374 61.2194 21.9917 60.6465 22.3275Z" fill="black"/>
<path d="M74.9968 26.4163C73.7326 26.4163 72.6067 26.1496 71.6191 25.6163C70.6512 25.083 69.8907 24.3423 69.3377 23.3942C68.7846 22.4461 68.5081 21.3498 68.5081 20.1054V11.8094H72.4191V20.0165C72.4191 20.6091 72.5178 21.1226 72.7154 21.5572C72.9129 21.972 73.2092 22.288 73.6042 22.5053C73.9993 22.7226 74.4634 22.8312 74.9968 22.8312C75.8066 22.8312 76.4387 22.5843 76.893 22.0905C77.3473 21.5967 77.5744 20.9054 77.5744 20.0165V11.8094H81.4558V20.1054C81.4558 21.3695 81.1793 22.4757 80.6262 23.4238C80.0929 24.3719 79.3324 25.1126 78.3448 25.6459C77.3769 26.1595 76.2609 26.4163 74.9968 26.4163Z" fill="black"/>
<path d="M84.5467 11.8094V26.12H88.428V17.6758C88.428 17.1228 88.5465 16.6487 88.7836 16.2537C89.0206 15.8586 89.3465 15.5623 89.7613 15.3648C90.1761 15.1475 90.6403 15.0389 91.1539 15.0389C91.9242 15.0389 92.5662 15.2759 93.0797 15.75C93.613 16.2043 93.8797 16.8462 93.8797 17.6758V26.12H97.761V17.6758C97.761 17.1228 97.8796 16.6487 98.1166 16.2537C98.3536 15.8586 98.6795 15.5623 99.0943 15.3648C99.5289 15.1475 99.9931 15.0389 100.487 15.0389C101.257 15.0389 101.899 15.2759 102.413 15.75C102.946 16.2043 103.213 16.8462 103.213 17.6758V26.12H107.094V17.0536C107.094 15.908 106.847 14.9204 106.353 14.0908C105.86 13.2612 105.188 12.6291 104.339 12.1945C103.489 11.7402 102.531 11.5131 101.465 11.5131C100.398 11.5131 99.4301 11.7501 98.561 12.2242C97.87 12.5854 97.2851 13.0715 96.8064 13.6824C96.3635 13.0547 95.8028 12.5587 95.1241 12.1945C94.3143 11.7402 93.4155 11.5131 92.4279 11.5131C91.381 11.5131 90.4428 11.7402 89.6132 12.1945C89.1703 12.4265 88.7752 12.712 88.428 13.051V11.8094H84.5467Z" fill="black"/>
<path d="M131.183 25.0434C131.183 29.7519 128.162 32.8274 123.725 32.8274C121.86 32.8274 120.288 32.3682 119.058 31.4925L121.127 28.4481C121.77 28.9632 122.621 29.2892 123.671 29.2892C125.984 29.2892 127.318 27.6018 127.318 25.0978V24.7168C126.583 25.8055 125.386 26.4042 123.725 26.4042C119.343 26.4042 117.438 23.6009 117.438 19.6V11.7974H121.249V19.4639C121.249 21.4235 122.31 22.7572 124.215 22.7572C125.957 22.7572 127.264 21.3146 127.264 19.3822V11.7974H131.183V25.0434Z" fill="black"/>
<defs>
<radialGradient id="paint0_diamond_551_7373" cx="0" cy="0" r="1" gradientUnits="userSpaceOnUse" gradientTransform="translate(5.5 6.99371) rotate(51.3402) scale(22.4109 23.0941)">
<stop stop-color="#28B2FF"/>
<stop offset="1" stop-color="#2D61E8"/>
</radialGradient>
<radialGradient id="paint1_radial_551_7373" cx="0" cy="0" r="1" gradientUnits="userSpaceOnUse" gradientTransform="translate(1.67018 26.1659) scale(31.9084 36.7257)">
<stop stop-color="#52B6FF"/>
<stop offset="0.304854" stop-color="#00A3FF"/>
<stop offset="0.838542" stop-color="#2E62E9"/>
<stop offset="1" stop-color="#0047FF"/>
</radialGradient>
<radialGradient id="paint2_radial_551_7373" cx="0" cy="0" r="1" gradientUnits="userSpaceOnUse" gradientTransform="translate(1.67018 26.1659) scale(26.5895 30.6038)">
<stop stop-color="#52B6FF"/>
<stop offset="0.304854" stop-color="#00A3FF"/>
<stop offset="0.727486" stop-color="#2A64FC"/>
<stop offset="1" stop-color="#0047FF"/>
</radialGradient>
</defs>
</svg>
