<svg width="45" height="45" viewBox="0 0 45 45" fill="none" xmlns="http://www.w3.org/2000/svg">
<path d="M30 30L22.5 22.5L15 30" stroke="#2D62E8" stroke-width="2.5" stroke-linecap="round" stroke-linejoin="round"/>
<path d="M22.5 22.5V39.375" stroke="#2D62E8" stroke-width="2.5" stroke-linecap="round" stroke-linejoin="round"/>
<path d="M38.2334 34.481C40.0622 33.484 41.5069 31.9064 42.3394 29.9972C43.172 28.088 43.3451 25.9558 42.8313 23.9373C42.3176 21.9188 41.1462 20.1289 39.5022 18.85C37.8582 17.5711 35.8351 16.8762 33.7522 16.8748H31.3897C30.8221 14.6796 29.7644 12.6417 28.2958 10.9141C26.8273 9.18663 24.9863 7.81451 22.9111 6.90093C20.836 5.98735 18.5807 5.55608 16.3149 5.63957C14.0491 5.72305 11.8317 6.3191 9.82939 7.38291C7.8271 8.44672 6.09202 9.9506 4.7546 11.7815C3.41718 13.6124 2.51223 15.7227 2.10777 17.9537C1.70331 20.1846 1.80988 22.4783 2.41946 24.6621C3.02904 26.846 4.12576 28.8633 5.62718 30.5623" stroke="#2D62E8" stroke-width="2.5" stroke-linecap="round" stroke-linejoin="round"/>
<path d="M30 30L22.5 22.5L15 30" stroke="#2D62E8" stroke-width="2.5" stroke-linecap="round" stroke-linejoin="round"/>
</svg>
